<?xml version="1.0" encoding="UTF-8"?>
<svg id="Layer_2" data-name="Layer 2" xmlns="http://www.w3.org/2000/svg" viewBox="0 0 268.1 168.55">
  <defs>
    <style>
      .cls-1, .cls-2, .cls-3, .cls-4, .cls-5, .cls-6, .cls-7, .cls-8, .cls-9, .cls-10, .cls-11, .cls-12, .cls-13 {
        stroke-miterlimit: 10;
      }

      .cls-1, .cls-2, .cls-3, .cls-4, .cls-5, .cls-6, .cls-7, .cls-9, .cls-11, .cls-12 {
        fill: none;
      }

      .cls-1, .cls-8 {
        stroke: #9d0909;
      }

      .cls-1, .cls-12 {
        stroke-width: 1.19px;
      }

      .cls-2 {
        stroke: #b3b3b3;
      }

      .cls-3 {
        stroke-width: .8px;
      }

      .cls-3, .cls-4, .cls-5, .cls-6, .cls-7 {
        stroke: #fff;
      }

      .cls-4 {
        stroke-width: .5px;
      }

      .cls-5 {
        stroke-width: .32px;
      }

      .cls-6 {
        stroke-width: .35px;
      }

      .cls-7 {
        stroke-width: .3px;
      }

      .cls-8 {
        fill: #fff;
      }

      .cls-9 {
        stroke: #e6e6e6;
      }

      .cls-10 {
        fill: #1a1a1a;
        stroke-width: 1.01px;
      }

      .cls-10, .cls-11, .cls-12, .cls-13 {
        stroke: #000;
      }

      .cls-11 {
        stroke-width: 1.1px;
      }

      .cls-13 {
        fill: #ccc;
        stroke-width: 1.17px;
      }
    </style>
  </defs>
  <g id="Layer_2-2" data-name="Layer 2">
    <rect class="cls-10" x=".51" y=".51" width="267.09" height="167.53" rx="12" ry="12"/>
    <circle class="cls-3" cx="9.99" cy="9.07" r="4.84"/>
    <circle class="cls-3" cx="256.56" cy="9.07" r="4.84"/>
    <circle class="cls-3" cx="256.56" cy="158.97" r="4.84"/>
    <circle class="cls-4" cx="131.48" cy="139.8" r="4.84"/>
    <circle class="cls-4" cx="67.38" cy="158.21" r="5.51"/>
    <circle class="cls-6" cx="67.38" cy="158.21" r="3.86"/>
    <circle class="cls-6" cx="131.59" cy="139.8" r="3.86"/>
    <circle class="cls-6" cx="196.24" cy="158.21" r="3.86"/>
    <circle class="cls-4" cx="196.13" cy="158.21" r="5.51"/>
    <circle class="cls-3" cx="9.99" cy="158.97" r="4.84"/>
    <polyline class="cls-4" points="36.96 167.46 47.98 129.19 215.97 129.19 225.81 167.5"/>
    <polyline class="cls-7" points="39.32 167.67 49.52 131.54 213.83 131.54 223.1 167.67"/>
    <rect class="cls-4" x="88.85" y="149.13" width="9.96" height="9.96" rx="2.58" ry="2.58"/>
    <rect class="cls-5" x="90.69" y="150.97" width="6.28" height="6.28" rx="1.57" ry="1.57"/>
    <rect class="cls-5" x="165.82" y="150.97" width="6.28" height="6.28" rx="1.57" ry="1.57"/>
    <rect class="cls-4" x="163.98" y="149.13" width="9.96" height="9.96" rx="2.58" ry="2.58"/>
    <line class="cls-2" x1="9.99" y1="6.19" x2="9.99" y2="12.32"/>
    <line class="cls-2" x1="7.16" y1="9.26" x2="12.81" y2="9.26"/>
    <line class="cls-2" x1="256.56" y1="6.19" x2="256.56" y2="12.32"/>
    <line class="cls-2" x1="253.74" y1="9.26" x2="259.38" y2="9.26"/>
    <line class="cls-2" x1="256.56" y1="156.03" x2="256.56" y2="162.16"/>
    <line class="cls-2" x1="253.74" y1="159.09" x2="259.38" y2="159.09"/>
    <line class="cls-2" x1="9.99" y1="156.03" x2="9.99" y2="162.16"/>
    <line class="cls-2" x1="7.16" y1="159.09" x2="12.81" y2="159.09"/>
  </g>
  <g id="Layer_3" data-name="Layer 3">
    <polygon class="cls-13" points="242.53 8.91 133.27 8.91 133.27 8.91 24.02 8.91 12.56 19.58 13.17 124.04 133.27 124.04 133.27 124.04 253.37 124.04 253.99 19.58 242.53 8.91"/>
    <polygon class="cls-8" points="238.58 13.3 133.27 13.3 133.27 13.31 27.96 13.31 16.92 23.16 17.52 119.65 133.27 119.65 133.27 119.64 249.03 119.64 249.62 23.16 238.58 13.3"/>
  </g>
  <g id="Layer_4" data-name="Layer 4">
    <rect class="cls-12" x="55.04" y="54.99" width="152.89" height="38.09" rx="19.04" ry="19.04"/>
    <rect class="cls-9" x="51.92" y="51.68" width="159.69" height="44.7" rx="22.35" ry="22.35"/>
    <path class="cls-12" d="M89.97,74.03c0,7.89-5.99,14.36-13.65,15.16-.25.03-.5.05-.75.06-.28.01-.56.02-.84.02s-.57-.01-.85-.02c-.25-.01-.5-.03-.75-.06-7.67-.81-13.64-7.28-13.64-15.16,0-8.41,6.82-15.24,15.24-15.24s15.24,6.83,15.24,15.24Z"/>
    <path class="cls-11" d="M203.47,74.03c0,7.88-5.97,14.35-13.64,15.16-.25.03-.5.05-.75.06-.28.01-.57.02-.85.02s-.57-.01-.84-.02c-.25-.01-.5-.03-.75-.06-7.66-.8-13.65-7.27-13.65-15.16,0-8.41,6.83-15.24,15.24-15.24s15.24,6.83,15.24,15.24Z"/>
    <rect class="cls-12" x="103.28" y="59.77" width="56.61" height="19.04"/>
    <g>
      <line class="cls-1" x1="104.41" y1="80.24" x2="104.41" y2="85.06"/>
      <line class="cls-1" x1="109.76" y1="80.24" x2="109.76" y2="83.85"/>
      <line class="cls-1" x1="115.23" y1="80.24" x2="115.23" y2="84.55"/>
      <line class="cls-1" x1="120.35" y1="80.24" x2="120.35" y2="84.55"/>
      <line class="cls-1" x1="125.91" y1="80.24" x2="125.91" y2="83.85"/>
      <line class="cls-1" x1="131.15" y1="80.24" x2="131.15" y2="86.29"/>
      <line class="cls-1" x1="136.29" y1="80.24" x2="136.29" y2="83.85"/>
      <line class="cls-1" x1="141.64" y1="80.24" x2="141.64" y2="84.55"/>
      <line class="cls-1" x1="147.23" y1="80.24" x2="147.23" y2="84.55"/>
      <line class="cls-1" x1="152.23" y1="80.24" x2="152.23" y2="84.55"/>
      <line class="cls-1" x1="157.82" y1="80.13" x2="157.82" y2="86.29"/>
    </g>
  </g>
</svg>