<?xml version="1.0" encoding="UTF-8"?>
<svg id="Layer_2" data-name="Layer 2" xmlns="http://www.w3.org/2000/svg" viewBox="0 0 34.06 34">
  <defs>
    <style>
      .cls-1 {
        stroke-width: 1.19px;
      }

      .cls-1, .cls-2, .cls-3 {
        stroke: #000;
        stroke-miterlimit: 10;
      }

      .cls-2, .cls-3 {
        stroke-width: 1.1px;
      }

      .cls-3 {
        fill: none;
      }
    </style>
  </defs>
  <g id="Layer_4" data-name="Layer 4">
    <g>
      <path class="cls-1" d="M33.46,17.02c0,8.55-6.52,15.55-14.84,16.35,7.66-.8,13.65-7.27,13.65-15.16,0-8.41-6.83-15.24-15.24-15.24S1.79,9.8,1.79,18.21c0,7.88,5.97,14.35,13.64,15.16C7.11,32.57.59,25.57.59,17.02.59,7.94,7.95.59,17.03.59s16.43,7.35,16.43,16.43Z"/>
      <path class="cls-3" d="M32.27,18.21c0,7.89-5.99,14.36-13.65,15.16-.25.03-.5.05-.75.06-.28.01-.56.02-.84.02s-.57-.01-.85-.02c-.25-.01-.5-.03-.75-.06-7.67-.81-13.64-7.28-13.64-15.16C1.79,9.8,8.61,2.97,17.03,2.97s15.24,6.83,15.24,15.24Z"/>
      <polygon class="cls-2" points="10.63 5.47 12.8 10.88 15.75 9.89 14.29 4.22 10.63 5.47"/>
      <polygon class="cls-2" points="24.9 5.99 21.48 10.7 23.88 12.68 27.9 8.42 24.9 5.99"/>
      <polygon class="cls-2" points="31.48 19.35 25.76 18.21 24.98 21.23 30.53 23.09 31.48 19.35"/>
      <polygon class="cls-2" points="24.69 30.36 22.11 25.13 19.24 26.35 21.14 31.88 24.69 30.36"/>
      <polygon class="cls-2" points="9.99 30.64 13.19 25.78 10.69 23.92 6.88 28.36 9.99 30.64"/>
      <polygon class="cls-2" points="2.67 17.85 8.44 18.64 9.05 15.59 3.39 14.06 2.67 17.85"/>
    </g>
  </g>
</svg>